<?xml version="1.0" standalone="no"?>
<!DOCTYPE svg PUBLIC "-//W3C//DTD SVG 20010904//EN"
 "http://www.w3.org/TR/2001/REC-SVG-20010904/DTD/svg10.dtd">
<svg version="1.0" xmlns="http://www.w3.org/2000/svg"
 width="512.000000pt" height="512.000000pt" viewBox="0 0 512.000000 512.000000"
 preserveAspectRatio="xMidYMid meet">
<metadata>
Created by potrace 1.14, written by Peter Selinger 2001-2017
</metadata>
<g transform="translate(0.000000,512.000000) scale(0.100000,-0.100000)"
fill="#000000" stroke="none">
<path d="M2505 4909 c-4 -27 -5 -52 -4 -54 2 -2 317 -48 699 -103 l695 -100
-1806 -1 c-1736 -1 -1807 -2 -1822 -19 -16 -17 -17 -144 -17 -1629 0 -1542 1
-1611 18 -1626 16 -15 61 -17 382 -19 l365 -3 173 -365 c95 -201 181 -373 190
-382 16 -15 103 -17 1109 -24 968 -6 1094 -5 1115 8 13 8 129 185 258 392
l234 376 341 0 342 0 21 23 22 23 0 1600 c0 1597 0 1600 -20 1622 -20 21 -29
22 -175 22 -85 0 -156 4 -159 9 -15 24 -177 51 -1019 171 -503 71 -919 130
-925 130 -5 0 -13 -23 -17 -51z m780 -1496 c-3 -626 -8 -1163 -10 -1193 -2
-30 -4 -214 -5 -407 l0 -353 -760 0 -760 0 0 1545 0 1545 770 0 770 0 -5
-1137z m733 790 c-3 -28 -4 -28 -80 -31 l-78 -3 0 -214 0 -215 -30 0 -30 0 0
215 0 215 -75 0 -75 0 0 30 0 30 186 0 185 0 -3 -27z m140 -60 c17 -49 50
-142 73 -207 l42 -119 72 204 c72 204 72 204 104 207 17 2 31 0 31 -5 -1 -4
-40 -114 -88 -243 -87 -235 -87 -235 -118 -238 -27 -3 -33 1 -42 25 -5 15 -44
121 -86 234 -42 114 -76 212 -76 218 0 6 13 11 29 11 27 0 30 -5 59 -87z
m-771 -815 c-1 -46 -3 -11 -3 77 0 88 2 125 3 83 2 -42 2 -114 0 -160z m-10
-1595 c-1 -43 -3 -8 -3 77 0 85 2 120 3 78 2 -43 2 -113 0 -155z m593 -378 c0
-3 -75 -126 -166 -273 -91 -147 -185 -298 -208 -335 l-41 -68 -1055 6 c-580 4
-1058 10 -1061 13 -8 9 -309 647 -309 656 0 3 639 6 1420 6 781 0 1420 -2
1420 -5z"/>
<path d="M3090 1284 c-107 -29 -185 -97 -216 -188 -68 -198 179 -385 424 -322
258 66 323 330 115 464 -90 58 -213 76 -323 46z m248 -118 c66 -33 97 -77 97
-136 0 -59 -31 -103 -98 -137 -43 -22 -66 -27 -132 -27 -68 -1 -89 3 -137 27
-134 66 -143 189 -18 264 62 38 83 42 172 38 46 -3 81 -11 116 -29z"/>
</g>
</svg>
